<svg xmlns="http://www.w3.org/2000/svg" viewBox="0 0 248.92 127.57"><defs><style>.cls-1{opacity:0.15;}.cls-2{fill:#fcb700;}.cls-3{opacity:0.1;}.cls-4{fill:#727272;}.cls-5{fill:#545454;}.cls-6{fill:#ffc929;}.cls-7{fill:#8e8e8e;}.cls-8{fill:#fff;opacity:0.2;}</style></defs><title>Asset 1</title><g id="Layer_2" data-name="Layer 2"><g id="OBJECTS"><ellipse class="cls-1" cx="124.46" cy="119.84" rx="124.46" ry="7.73"/><path class="cls-2" d="M217.89,9.86a1.77,1.77,0,0,0,0,.23,10.23,10.23,0,0,0,.16,1.11l3.53,16.37,16.17,74.86a3.62,3.62,0,0,0,7.15-1.09L236.32,8.4a9.24,9.24,0,0,0-18.43,1.46Z"/><path class="cls-3" d="M217.89,9.86a1.77,1.77,0,0,0,0,.23,10.23,10.23,0,0,0,.16,1.11l3.53,16.37,2.79-.41a8.52,8.52,0,0,0,5.67-3.4A8.62,8.62,0,0,0,223.38,10C221.56,9.94,219.72,9.9,217.89,9.86Z"/><path class="cls-4" d="M223.44,121.07c16.7,0,18.13-14,17.86-20.66A27.33,27.33,0,0,0,241,97H225.11l-12.44-5-6.77-9.23s-.25,2.13-.33,5.39C205.3,98.65,206.68,121.07,223.44,121.07Z"/><path class="cls-5" d="M205.57,88.08l4.9,6.68,14,5.65H241.3A27.33,27.33,0,0,0,241,97H225.11l-12.44-5-6.77-9.23S205.65,84.82,205.57,88.08Z"/><path class="cls-6" d="M234.9,101.88a6.43,6.43,0,1,1,6.43,6.43A6.43,6.43,0,0,1,234.9,101.88Z"/><path class="cls-2" d="M241.33,106.49a4.61,4.61,0,1,0-4.61-4.61A4.62,4.62,0,0,0,241.33,106.49Z"/><circle class="cls-4" cx="241.33" cy="101.88" r="2.88"/><path class="cls-4" d="M124.43,18.53a2.23,2.23,0,0,0,2.9,1.23l21.49-8.55,78.33-3a1.16,1.16,0,0,0-.05-2.31l-78.82.78a1.53,1.53,0,0,0-.36,0,1.49,1.49,0,0,0-.4.11h0l-21.84,8.78A2.24,2.24,0,0,0,124.43,18.53Z"/><path class="cls-2" d="M124.43,18.53a2.23,2.23,0,0,0,2.9,1.23l21.49-8.55-.9-4.49a1.49,1.49,0,0,0-.4.11h0l-21.84,8.78A2.24,2.24,0,0,0,124.43,18.53Z"/><path class="cls-6" d="M98.24,49.3a9.83,9.83,0,0,0,12.9.1c2.45-2.09,4.81-4.26,7.13-6.48,1.46-1.38,2.88-2.77,4.3-4.18L125,36.33a8.41,8.41,0,0,1,1.41-1.11,9.49,9.49,0,0,1,3.38-1.39l.5-.08,1-.1,1.94-.21,3.89-.41,7.77-.85,15.55-1.73q15.57-1.74,31.09-3.69c5.18-.65,11.51-1.32,16.69-2s10.35-1.37,15.52-2.15a4,4,0,0,0-.46-8c-5.23-.16-10.44-.25-15.67-.34s-11.6-.18-16.82-.22q-15.65-.13-31.3-.09l-15.65.08-7.81.07-3.91,0-2,0h-1l-1.47.09a28,28,0,0,0-16.27,6.87l-1.09,1-.7.68-1.4,1.37-1.48,1.46c-3.22,3.17-6.37,6.4-9.36,9.79A9.83,9.83,0,0,0,98.24,49.3Z"/><path class="cls-2" d="M98.24,49.3a9.83,9.83,0,0,0,12.9.1c2.45-2.09,4.81-4.26,7.13-6.48a39.18,39.18,0,0,0-11.53-17.3c-3.22,3.17-6.37,6.4-9.36,9.79A9.83,9.83,0,0,0,98.24,49.3Z"/><path class="cls-4" d="M220.75,18.78a2.08,2.08,0,1,1,2.08,2.08A2.08,2.08,0,0,1,220.75,18.78Z"/><path class="cls-4" d="M26.84,118.48a13.39,13.39,0,1,1,0-26.77H117.4a13.39,13.39,0,0,1,0,26.77Z"/><path class="cls-5" d="M117.4,113.86a8.77,8.77,0,0,0,0-17.53H26.84a8.77,8.77,0,1,0,0,17.53Z"/><path class="cls-4" d="M117.4,108.09a3,3,0,0,0,0-6H26.84a3,3,0,1,0,0,6Z"/><path class="cls-7" d="M26.84,113.86a8.77,8.77,0,1,0-8.77-8.76A8.77,8.77,0,0,0,26.84,113.86Z"/><path class="cls-4" d="M26.84,109.24a4.15,4.15,0,1,0-4.15-4.14A4.16,4.16,0,0,0,26.84,109.24Z"/><path class="cls-7" d="M117.4,113.86a8.77,8.77,0,1,0-8.77-8.76A8.77,8.77,0,0,0,117.4,113.86Z"/><path class="cls-4" d="M117.4,109.24a4.15,4.15,0,1,0-4.15-4.14A4.16,4.16,0,0,0,117.4,109.24Z"/><rect class="cls-5" x="41.81" y="87.66" width="62.45" height="4.05" transform="translate(146.07 179.37) rotate(180)"/><path class="cls-6" d="M8.31,59.57V80.78a6.72,6.72,0,0,0,.33,2.12,6.89,6.89,0,0,0,6.55,4.76H107a6.34,6.34,0,0,0,6.13-4.76,5.83,5.83,0,0,0,.2-1.57V55.23A32.29,32.29,0,0,0,81,22.94H66.64a8,8,0,0,0-8,7.18l-2,19.5a3.43,3.43,0,0,1-3.41,3.07H15.19A6.88,6.88,0,0,0,8.31,59.57Z"/><path class="cls-2" d="M107,81.89A2.88,2.88,0,0,0,109.87,79V55.23c0-.24,0-.49,0-.72a28.73,28.73,0,0,0-28.19-28.1h-15a4.51,4.51,0,0,0-4.51,4.07L59.72,51.86a17,17,0,0,0,1.59,9.3l.47,1c5.83,12,18.06,19.24,33.53,19.75l1.73,0Z"/><path d="M63.38,60.16l.47.93c5.92,12.23,18.05,18,31.54,18.47l1.65,0h10a.56.56,0,0,0,.56-.56V55.23c0-.2,0-.39,0-.58A26.52,26.52,0,0,0,81.62,28.72h-15a2.22,2.22,0,0,0-2.22,2l-.22,2L63.49,39l-.88,7.8L62,52.11A14.72,14.72,0,0,0,63.38,60.16Z"/><path class="cls-8" d="M64.2,32.67,107.56,76V55.23c0-.2,0-.39,0-.58L81.62,28.72h-15a2.22,2.22,0,0,0-2.22,2Z"/><path class="cls-8" d="M62.61,46.78,95.39,79.56l1.65,0h7L63.49,39Z"/><path class="cls-4" d="M8.31,78.14v2.64a6.88,6.88,0,0,0,6.88,6.88H61.54V82.54a4.41,4.41,0,0,0-4.4-4.4Z"/><path class="cls-5" d="M18.21,48h21.2a0,0,0,0,1,0,0v0a4.72,4.72,0,0,1-4.72,4.72H22.93A4.72,4.72,0,0,1,18.21,48v0A0,0,0,0,1,18.21,48Z" transform="translate(57.62 100.67) rotate(180)"/><path class="cls-5" d="M47.07,47.37h0a3,3,0,0,1,3,3V52.7h-6V50.35A3,3,0,0,1,47.07,47.37Z"/><path class="cls-2" d="M8.31,59.57v.2H37.88a4.39,4.39,0,0,0,4.38-4.39V52.69H15.19A6.88,6.88,0,0,0,8.31,59.57Z"/><path class="cls-5" d="M8.31,63.3v2.31H25.69a1.16,1.16,0,0,0,0-2.31Z"/><path class="cls-5" d="M8.31,67.34v2.31H25.69a1.16,1.16,0,0,0,0-2.31Z"/><path class="cls-5" d="M8.31,71.38v2.31H25.69a1.15,1.15,0,0,0,1.15-1.16,1.13,1.13,0,0,0-1.15-1.15Z"/><path class="cls-5" d="M75.28,17.36h0a2.45,2.45,0,0,1,2.45,2.45v3.13h-4.9V19.81A2.45,2.45,0,0,1,75.28,17.36Z"/><path class="cls-3" d="M8.64,82.9a6.89,6.89,0,0,0,6.55,4.76H107a6.34,6.34,0,0,0,6.13-4.76Z"/></g></g></svg>